<svg xmlns="http://www.w3.org/2000/svg" viewBox="0 0 1170 310" role="img" aria-labelledby="title desc">
  <title id="title">S Visuals Logo</title>
  <desc id="desc">S Visuals wordmark with gradient symbol.</desc>
  <defs>
    <linearGradient id="svisualsLogoGradient" x1="0%" y1="0%" x2="100%" y2="100%">
      <stop offset="0%" stop-color="#9639d7" />
      <stop offset="45%" stop-color="#dc3471" />
      <stop offset="100%" stop-color="#ff1d25" />
    </linearGradient>
  </defs>
  <path d="M 252 309.5 L 58 309.5 L 43 305.5 L 33 300.5 L 22 292.5 L 13.5 283 L 3.5 265 L -0.5 248 L -0.5 61 L 1.5 50 L 7.5 35 L 17.5 21 L 27 12.5 L 43 3.5 L 58 -0.5 L 252 -0.5 L 267 3.5 L 277 8.5 L 288 16.5 L 296.5 26 L 306.5 44 L 310.5 61 L 309.5 255 L 302.5 274 L 288 292.5 L 267 305.5 L 252 309.5 Z M 249.5 291 L 260 288.5 L 268 284.5 L 279.5 275 L 288.5 261 L 292.5 243 L 292.5 66 L 288.5 48 L 279.5 34 L 268 24.5 L 249 17.5 L 61 17.5 L 50 20.5 L 34 30.5 L 26.5 39 L 21.5 48 L 17.5 66 L 17.5 243 L 21.5 261 L 30.5 275 L 42 284.5 L 61 291.5 L 249.5 291 Z M 247 275.5 L 63 275.5 L 50 270.5 L 41.5 263 L 34.5 249 L 34.5 60 L 37.5 52 L 47 40.5 L 63 33.5 L 247 33.5 L 260 38.5 L 268.5 46 L 275.5 60 L 275.5 249 L 272.5 257 L 263 268.5 L 247 275.5 Z M 167.5 244 L 182 242.5 L 198 237.5 L 210 230.5 L 218.5 222 L 224.5 211 L 227.5 199 L 227.5 181 L 225.5 171 L 221.5 161 L 216.5 154 L 203 143.5 L 186 136.5 L 147 127.5 L 127 119.5 L 121.5 114 L 118.5 107 L 118.5 94 L 121.5 87 L 127 81.5 L 133 78.5 L 145 75.5 L 170 76.5 L 182 80.5 L 194.5 91 L 203 110.5 L 216 110.5 L 216.5 73 L 195 66.5 L 169 62.5 L 148 61.5 L 129 63.5 L 118 66.5 L 108 71.5 L 102 75.5 L 91.5 87 L 84.5 106 L 84.5 129 L 88.5 142 L 101 156.5 L 114 163.5 L 125 167.5 L 164 176.5 L 181 183.5 L 185.5 187 L 189.5 194 L 190.5 210 L 186.5 219 L 175 227.5 L 164 230.5 L 135 229.5 L 122 224.5 L 111.5 216 L 105.5 207 L 101 191.5 L 87 191.5 L 86.5 232 L 101 237.5 L 125 242.5 L 142 244.5 L 167.5 244 Z" fill="url(#svisualsLogoGradient)" fill-rule="evenodd" />
  <path d="M 576 100.5 L 542 100.5 L 540.5 99 L 540.5 69 L 542 67.5 L 576 67.5 L 576 100.5 Z M 1042 237.5 L 1006.5 237 L 1006.5 69 L 1008 67.5 L 1042.5 68 L 1042 237.5 Z M 473 237.5 L 427.5 237 L 374 74.5 L 412.5 75 L 451 192.5 L 488.5 75 L 527.5 75 L 473 237.5 Z M 655 241.5 L 623 238.5 L 604.5 233 L 605 203.5 L 625 211.5 L 642 214.5 L 660 213.5 L 664 211.5 L 669.5 204 L 669.5 200 L 666 194.5 L 658 191.5 L 640 189.5 L 625 185.5 L 614 179.5 L 605.5 168 L 602.5 149 L 604.5 137 L 607.5 130 L 616 120.5 L 621 117.5 L 639 112.5 L 665 112.5 L 695.5 119 L 695 149.5 L 679 142.5 L 657 138.5 L 641 140.5 L 635.5 145 L 634.5 148 L 635.5 154 L 641 158.5 L 667 162.5 L 690 170.5 L 698.5 179 L 702.5 189 L 703.5 207 L 701.5 216 L 697.5 224 L 689 232.5 L 679 237.5 L 655 241.5 Z M 904 241.5 L 889 239.5 L 881 235.5 L 869.5 224 L 863.5 206 L 863.5 195 L 866.5 183 L 875 170.5 L 887 163.5 L 903 159.5 L 939 159.5 L 939.5 153 L 934 143.5 L 928 140.5 L 916 138.5 L 894 140.5 L 874 148.5 L 873.5 119 L 884 115.5 L 904 112.5 L 932 112.5 L 943 114.5 L 958 121.5 L 966.5 130 L 972.5 142 L 975.5 157 L 975.5 237 L 940 237.5 L 939 221.5 L 927 234.5 L 922 237.5 L 904 241.5 Z M 1121 241.5 L 1095 239.5 L 1071.5 233 L 1072 203.5 L 1088 210.5 L 1108 214.5 L 1126 213.5 L 1131 211.5 L 1135.5 206 L 1135.5 199 L 1131 193.5 L 1102 188.5 L 1085 182.5 L 1074.5 173 L 1070.5 163 L 1069.5 143 L 1074.5 129 L 1084 119.5 L 1096 114.5 L 1106 112.5 L 1132 112.5 L 1162.5 119 L 1162 149.5 L 1142 141.5 L 1123 138.5 L 1108 140.5 L 1101.5 146 L 1102.5 155 L 1108 158.5 L 1142 164.5 L 1158 171.5 L 1163.5 177 L 1168.5 187 L 1169.5 211 L 1162.5 226 L 1148 236.5 L 1133 240.5 L 1121 241.5 Z M 576 237.5 L 540.5 237 L 541 115.5 L 576.5 116 L 576 237.5 Z M 769 241.5 L 754 239.5 L 744 234.5 L 735.5 225 L 730.5 214 L 727.5 197 L 727.5 116 L 763.5 116 L 764.5 198 L 767.5 205 L 773 209.5 L 785 210.5 L 793 206.5 L 797.5 201 L 802.5 187 L 803.5 116 L 838 115.5 L 838.5 237 L 804 237.5 L 803 221.5 L 788 235.5 L 776 240.5 L 769 241.5 Z M 920.5 214 L 929 210.5 L 935.5 203 L 939.5 192 L 939 183.5 L 913 183.5 L 907 185.5 L 901.5 191 L 899.5 201 L 903.5 210 L 913 214.5 L 920.5 214 Z" fill="#ffffff" fill-rule="evenodd" />
</svg>
